<?xml version="1.0" encoding="UTF-8"?>
<svg version="1.1" xmlns="http://www.w3.org/2000/svg" width="1802" height="421">
<path d="M0 0 C26.07 0 52.14 0 79 0 C79.33 41.25 79.66 82.5 80 125 C83.63 121.37 87.26 117.74 91 114 C93.32673005 112.02573012 95.53767426 110.19815846 98 108.4375 C98.62044189 107.99188721 99.24088379 107.54627441 99.88012695 107.0871582 C127.68682642 87.68100539 160.7116667 80.76569765 194.15161133 86.52807617 C215.82789686 90.73064467 236.30173352 100.54311157 253 115 C253.50289551 115.42748535 254.00579102 115.8549707 254.52392578 116.29541016 C286.43404598 143.55891583 304.39954619 183.66146676 307.8190918 225.16943359 C310.44024189 266.18105871 301.23508873 310.95583254 274 343 C273.29488281 343.83144531 272.58976562 344.66289062 271.86328125 345.51953125 C269.62819628 348.06760837 267.32997539 350.53849374 265 353 C264.11828125 353.95777344 263.2365625 354.91554688 262.328125 355.90234375 C245.19928672 374.10983909 222.22204836 386.33668587 198 392 C197.1762085 392.19287598 196.35241699 392.38575195 195.50366211 392.58447266 C187.55460376 394.2401886 179.65863422 394.39858791 171.5625 394.375 C170.85923584 394.37445618 170.15597168 394.37391235 169.43139648 394.37335205 C133.42017635 394.24568891 105.19691585 380.19691585 80 355 C79.67 367.54 79.34 380.08 79 393 C52.93 393 26.86 393 0 393 C0 263.31 0 133.62 0 0 Z M96.6875 190.25 C82.10354507 207.78766733 77.53530863 228.61414395 79 251 C81.28012151 269.56492374 92.37609631 287.18061632 106.4375 299.09375 C124.81160113 312.76228865 145.62474193 317.38152367 168.29345703 314.73193359 C188.35052108 311.3092099 206.10542603 297.68352461 217.78515625 281.53125 C228.98628428 263.88446006 231.96832984 242.46739602 228 222.0625 C224.59749362 209.97002427 217.94566319 198.63553839 210 189 C209.48308594 188.36964844 208.96617187 187.73929688 208.43359375 187.08984375 C196.57328872 174.04053571 177.41914832 165.59873156 160.06640625 164.6796875 C135.44893882 163.89688778 113.8561288 172.24469339 96.6875 190.25 Z " fill="#000000" transform="translate(1281,27)"/>
<path d="M0 0 C0.66370605 0.21962402 1.32741211 0.43924805 2.01123047 0.66552734 C15.32967785 5.22328132 25.97048572 12.18888385 36 22 C36.67675781 22.6290625 37.35351562 23.258125 38.05078125 23.90625 C47.36550637 33.31430903 58 51.53936812 58 65 C46.00750878 70.01810682 34.00825022 75.01971544 22 80 C20.21625977 80.74032471 20.21625977 80.74032471 18.39648438 81.49560547 C15.60108263 82.65154901 12.80194906 83.7975394 10 84.9375 C9.22043945 85.26041016 8.44087891 85.58332031 7.63769531 85.91601562 C4.15059532 87.32105089 1.81925584 88 -2 88 C-2.34611328 87.00419922 -2.34611328 87.00419922 -2.69921875 85.98828125 C-6.03596946 76.95399574 -10.84024293 71.86500329 -19.6875 67.75 C-28.29641605 65.80081146 -36.31310871 66.47666686 -44 71 C-47.70150928 74.24968186 -50.67254916 78.42291938 -51.30078125 83.3671875 C-51.32939878 89.49133887 -50.86568266 93.74049546 -46.6640625 98.51953125 C-35.75912679 109.0255059 -18.77080291 110.45784626 -4.52490234 112.73583984 C8.98959654 114.9082399 22.00219584 117.70777537 35 122 C35.80050781 122.26006836 36.60101563 122.52013672 37.42578125 122.78808594 C73.25066274 134.60913932 103.58683331 157.14898766 121.09375 191 C124.62925182 198.05953271 127.61128804 205.18182057 129.875 212.75 C130.06602295 213.38583008 130.2570459 214.02166016 130.45385742 214.67675781 C133.85181715 226.8755103 134.37222594 239.05702485 134.3125 251.625 C134.30976578 252.81787628 134.30976578 252.81787628 134.30697632 254.03485107 C134.26109689 265.92255498 133.7967655 277.39727698 131 289 C130.83371094 289.73202637 130.66742188 290.46405273 130.49609375 291.21826172 C127.73907304 303.1270595 123.34143319 314.03121133 118 325 C117.68691895 325.65597168 117.37383789 326.31194336 117.05126953 326.98779297 C98.89252612 364.67992261 64.09055082 392.5391876 25.13330078 406.37060547 C16.55009253 409.28505868 7.9334113 411.48074053 -1 413 C-1.66708984 413.11569336 -2.33417969 413.23138672 -3.02148438 413.35058594 C-47.30706805 420.65922536 -92.50336697 409.56467814 -128.86010742 383.63818359 C-135.3713574 378.86830572 -141.23175598 373.64302888 -147 368 C-147.85980469 367.19046875 -148.71960938 366.3809375 -149.60546875 365.546875 C-180.57801426 335.77481575 -195.38286663 292.71025188 -196.25 250.4375 C-195.36872226 210.20976303 -180.64304876 173.44048123 -152 145 C-150.35683256 143.63781194 -148.69817532 142.29296409 -147 141 C-140.47121267 146.37193906 -134.55420138 152.31785074 -128.59765625 158.3046875 C-127.50928861 159.39492365 -126.42069743 160.48493669 -125.33189392 161.57473755 C-122.48730465 164.42311794 -119.64573319 167.27449004 -116.80480957 170.12652588 C-113.89710335 173.04452 -110.98651176 175.95963304 -108.07617188 178.875 C-102.38130919 184.58053984 -96.68963588 190.28924794 -91 196 C-92.55243579 199.24735134 -94.32238256 201.65209465 -96.6875 204.375 C-110.83172103 221.78525025 -113.27508198 241.30899217 -112 263 C-109.81688975 281.9322184 -97.54044695 301.96764244 -82.83203125 313.734375 C-63.7114407 327.83308125 -41.11961455 333.63032867 -17.58886719 330.69970703 C-2.8468131 328.19157689 10.37495306 322.45888912 22 313 C22.76828125 312.40703125 23.5365625 311.8140625 24.328125 311.203125 C39.06850861 299.14281114 48.90783119 279.82951931 51 261 C52.31401519 240.75130714 49.3180269 223.48803951 35.66015625 207.6640625 C17.29807825 189.27502109 -8.67433951 183.7006064 -33.3125 178.9375 C-63.40689434 173.1039961 -92.84513546 162.21760588 -110.78369141 135.72753906 C-124.7079917 114.12513328 -128.91345347 89.66828703 -124.75 64.3984375 C-121.4067576 49.24937035 -114.2956029 35.55352431 -104 24 C-103.33484375 23.24074219 -102.6696875 22.48148438 -101.984375 21.69921875 C-77.32599479 -4.74004448 -33.47750717 -11.21000809 0 0 Z " fill="#000000" transform="translate(196,4)"/>
<path d="M0 0 C6.12859905 5.16092551 12.03129524 10.58597897 17.9375 16 C18.2675 3.13 18.5975 -9.74 18.9375 -23 C45.3375 -23 71.7375 -23 98.9375 -23 C98.9375 78.31 98.9375 179.62 98.9375 284 C72.5375 284 46.1375 284 18.9375 284 C18.6075 271.13 18.2775 258.26 17.9375 245 C13.6475 249.29 9.3575 253.58 4.9375 258 C-7.51439517 267.62191899 -19.84658972 274.8221633 -34.75 279.875 C-35.59248291 280.16141357 -36.43496582 280.44782715 -37.30297852 280.74291992 C-48.94901112 284.49261087 -60.37168205 285.41396905 -72.5625 285.375 C-73.61564392 285.37318726 -73.61564392 285.37318726 -74.69006348 285.37133789 C-110.50722027 285.20464246 -141.24603234 270.37303535 -166.6171875 245.46826172 C-196.35379059 215.25948959 -210.28018853 174.08185141 -210.3125 132.25 C-210.31317474 131.4672168 -210.31384949 130.68443359 -210.31454468 129.87792969 C-210.29784941 117.68008751 -209.72412881 105.94429054 -207.0625 94 C-206.90152832 93.23445801 -206.74055664 92.46891602 -206.57470703 91.68017578 C-200.41033816 63.01378799 -186.10284725 37.23573638 -166.0625 16 C-165.38960937 15.26265625 -164.71671875 14.5253125 -164.0234375 13.765625 C-122.23651832 -30.3688739 -48.27568316 -37.78883064 0 0 Z M-106.0625 74 C-107.29419922 75.09248047 -107.29419922 75.09248047 -108.55078125 76.20703125 C-122.3281371 89.14812877 -130.52906321 107.07949948 -131.3984375 126.0078125 C-131.75654581 146.13388858 -127.61598834 165.35803774 -113.5625 180.5625 C-111.76456314 182.41780484 -109.92579232 184.20826691 -108.0625 186 C-107.40636719 186.66386719 -106.75023437 187.32773437 -106.07421875 188.01171875 C-90.87638244 202.49359703 -71.83945308 206.47030093 -51.55078125 206.203125 C-32.23690828 205.66617379 -14.14262767 195.62581896 -0.875 181.875 C14.2966881 164.39143561 19.39156384 143.76505674 17.9375 121 C15.65589509 101.55025322 4.86188996 84.3347661 -9.75 71.6875 C-38.49191689 50.17654005 -78.79779367 49.51639304 -106.0625 74 Z " fill="#000000" transform="translate(1162.0625,136)"/>
<path d="M0 0 C25.74 0 51.48 0 78 0 C78.04898438 11.364375 78.09796875 22.72875 78.1484375 34.4375 C78.18384152 41.65625742 78.21973291 48.87500702 78.2578125 56.09375 C78.31810443 67.54034611 78.37646135 78.98692764 78.421875 90.43359375 C78.45496693 98.77221155 78.4948911 107.11076489 78.54279006 115.44931126 C78.56788533 119.85852806 78.58971521 124.26770304 78.60334396 128.67697144 C78.61632028 132.84007147 78.63853641 137.0030268 78.66738319 141.16604614 C78.67633897 142.68156351 78.68212051 144.1971041 78.68421364 145.71264648 C78.7251442 170.88160118 82.51499898 196.64577838 100 216 C100.56847656 216.67160156 101.13695312 217.34320313 101.72265625 218.03515625 C111.78566002 229.12368906 127.77040845 236.1801707 142.64038086 237.17700195 C164.94160583 237.66084736 181.88759813 235.11299177 199.1484375 219.75 C218.85737663 200.74302308 227.26608469 171.30143129 228.10595894 144.63585854 C228.16181579 140.81229516 228.18918923 136.98916171 228.20532227 133.1652832 C228.21492365 131.70554847 228.22493497 130.24581639 228.23532104 128.78608704 C228.26213165 124.85712877 228.28326879 120.92815878 228.30332303 116.99916101 C228.3253314 112.88053826 228.35264677 108.76195063 228.37937927 104.64335632 C228.42910688 96.85931235 228.47411885 89.07524867 228.51740164 81.29116648 C228.57622474 70.76186034 228.64240334 60.23260052 228.70815182 49.70333576 C228.81141434 33.13558849 228.90491066 16.56780087 229 0 C254.74 0 280.48 0 307 0 C306.27302106 3.63489471 305.62746169 6.2063169 304.22167969 9.50805664 C303.85749939 10.36988052 303.49331909 11.23170441 303.11810303 12.11964417 C302.72334778 13.04051315 302.32859253 13.96138214 301.921875 14.91015625 C301.51342346 15.87344345 301.10497192 16.83673065 300.68414307 17.82920837 C299.37719182 20.90887677 298.06376281 23.98573205 296.75 27.0625 C295.88106789 29.10593167 295.01257372 31.14954963 294.14453125 33.19335938 C293.7225647 34.18588715 293.30059814 35.17841492 292.86584473 36.20101929 C292.03325295 38.16187281 291.20241995 40.12347412 290.37341309 42.08584595 C288.70800477 46.02236253 287.04211522 49.95137163 285.24023438 53.82763672 C284.77423828 54.85260254 284.30824219 55.87756836 283.828125 56.93359375 C283.24659668 58.15453735 283.24659668 58.15453735 282.65332031 59.40014648 C280.62975088 67.45283368 284.67986689 76.71469021 286.82421875 84.4453125 C287.21246725 85.86077754 287.60021868 87.27637901 287.98750305 88.69210815 C289.00781638 92.41677733 290.03469717 96.13960403 291.06304932 99.86206055 C292.0868915 103.57235012 293.10479266 107.28426749 294.12304688 110.99609375 C296.12700366 118.30045121 296.12700366 118.30045121 298.1418066 125.6018219 C298.50640793 126.92985905 298.86541215 128.25944387 299.2191782 129.59040833 C300.22387824 133.34127099 301.33224561 137.01837436 302.59454346 140.69113159 C307.98940151 157.0830137 307.79323103 173.27967395 307.60836363 190.31810141 C307.57027443 194.43524046 307.56728631 198.55242018 307.56021118 202.66970825 C307.54173013 210.42886339 307.49272596 218.18749752 307.43211424 225.94642556 C307.35182554 236.45748588 307.31998685 246.96869363 307.28510094 257.47998428 C307.22906641 273.98704471 307.10942519 290.49300693 307 307 C281.26 307 255.52 307 229 307 C228.67 290.17 228.34 273.34 228 256 C225.36 259.63 222.72 263.26 220 267 C201.15130831 289.81543613 176.17823404 304.22491289 146.58984375 307.24609375 C108.78242213 310.57688669 73.19909105 300.86642483 43.9765625 276.4765625 C23.52600266 258.81203047 11.10089369 235.02060402 4.125 209.1875 C3.93389648 208.48463867 3.74279297 207.78177734 3.54589844 207.05761719 C0.15281361 193.56533251 -0.28784136 180.13562221 -0.22705078 166.31469727 C-0.22648522 164.48984788 -0.22680605 162.66499805 -0.22793579 160.84014893 C-0.22850465 155.93412798 -0.2168267 151.0282068 -0.20278788 146.12220883 C-0.19020196 140.97730608 -0.18910386 135.83240051 -0.18673706 130.68748474 C-0.18054523 120.96627944 -0.16416581 111.24511965 -0.14403808 101.5239343 C-0.12160719 90.44762463 -0.11066764 79.37131266 -0.10064721 68.29498589 C-0.07979731 45.52995963 -0.0431501 22.76499567 0 0 Z " fill="#000000" transform="translate(334,112)"/>
<path d="M0 0 C17.50328747 14.97057682 26.67064217 34.87975369 29.25 57.625 C29.25 63.235 29.25 68.845 29.25 74.625 C5.82 74.625 -17.61 74.625 -41.75 74.625 C-42.74 70.005 -43.73 65.385 -44.75 60.625 C-47.57067591 53.37183337 -51.39929322 49.07924485 -58.1875 45.25 C-64.60131763 43.68565424 -69.31079502 44.2373222 -75 47.4375 C-80.20382087 50.96866416 -82.92473466 56.76176557 -84.75 62.625 C-86.06948352 69.90890563 -86.82959818 77.12736183 -82.75 83.625 C-74.73266822 94.29707741 -61.09957404 97.84712185 -48.8125 101.75 C-46.30338542 102.56510417 -43.79427083 103.38020833 -41.28515625 104.1953125 C-40.05152344 104.59290771 -38.81789063 104.99050293 -37.546875 105.40014648 C-33.61324609 106.66911615 -29.68082626 107.9408986 -25.75390625 109.23046875 C-23.99348999 109.80510864 -23.99348999 109.80510864 -22.19750977 110.39135742 C-2.02015908 117.6115368 13.49522516 130.41524865 22.74609375 149.92578125 C31.65500607 171.83939155 33.04029429 201.09826666 25.25 223.625 C25.03037598 224.27307617 24.81075195 224.92115234 24.58447266 225.58886719 C16.37824655 249.34220389 -0.58245517 267.95009306 -22.75 279.625 C-36.91768752 286.14445171 -51.40845231 289.19493461 -67 289.0625 C-68.26344238 289.05492676 -69.52688477 289.04735352 -70.82861328 289.03955078 C-80.90793008 288.86303712 -90.16913431 287.75859141 -99.75 284.625 C-100.4006543 284.41601074 -101.05130859 284.20702148 -101.72167969 283.99169922 C-123.67876712 276.68179604 -142.60118364 261.21190092 -153.01635742 240.43359375 C-160.31378772 225.20180458 -162.75 211.68014572 -162.75 194.625 C-137.01 194.625 -111.27 194.625 -84.75 194.625 C-83.76 198.915 -82.77 203.205 -81.75 207.625 C-78.62367554 214.05629602 -75.26567352 217.60680531 -68.75 220.625 C-63.49917707 222.19121104 -58.74193956 222.32395097 -53.6875 220.0625 C-47.6444525 216.72477028 -43.36028626 211.57147986 -41.22265625 204.9921875 C-39.76565577 197.69514375 -39.48165736 189.85006435 -43.44140625 183.328125 C-53.25291904 170.55851433 -71.88701182 168.28410965 -86.60961914 164.65356445 C-104.28846468 160.26754794 -119.65828761 154.42028518 -133.75 142.625 C-134.54792969 141.98949219 -135.34585937 141.35398437 -136.16796875 140.69921875 C-151.46229951 127.98465462 -160.67773597 109.2723769 -162.75 89.625 C-164.65490753 61.08890162 -160.83369182 33.7304945 -141.4375 11.5 C-139.8935102 9.85740244 -138.3309372 8.23206839 -136.75 6.625 C-136.00105469 5.86316406 -135.25210937 5.10132813 -134.48046875 4.31640625 C-99.75840282 -28.90852251 -37.18496199 -29.24945711 0 0 Z " fill="#000000" transform="translate(1772.75,132.375)"/>
<path d="M0 0 C25.74 0 51.48 0 78 0 C78 129.69 78 259.38 78 393 C52.26 393 26.52 393 0 393 C0 263.31 0 133.62 0 0 Z " fill="#000000" transform="translate(854,27)"/>
<path d="M0 0 C39.93 0 79.86 0 121 0 C121 21.45 121 42.9 121 65 C107.14 65 93.28 65 79 65 C79.04034583 84.3677377 79.09718487 103.73519973 79.18390274 123.10278034 C79.22364594 132.09627377 79.25606234 141.08968029 79.27099609 150.08325195 C79.28403714 157.9256289 79.31106415 165.76781426 79.35461307 173.61008328 C79.37717294 177.75930552 79.39291399 181.90829194 79.39188385 186.05758095 C79.39113398 189.97047194 79.40921462 193.88284272 79.44116783 197.79559898 C79.44962185 199.22451781 79.45144762 200.6534953 79.44580269 202.08242798 C79.41217645 211.91056287 80.23463839 221.27882303 86.25 229.4375 C94.25390672 236.8956858 101.76698412 236.89380952 113 239 C113 261.77 113 284.54 113 308 C89.7376261 308 89.7376261 308 81.6875 306.75 C80.77436035 306.61577637 79.8612207 306.48155273 78.92041016 306.34326172 C66.72013316 304.45688644 55.20282788 301.26099652 44 296 C42.63101563 295.37351562 42.63101563 295.37351562 41.234375 294.734375 C24.90396659 286.61582911 12.18549861 271.1055829 6.29248047 253.93896484 C5.57290003 251.67721201 4.89982561 249.40774556 4.25 247.125 C4.05124268 246.43075928 3.85248535 245.73651855 3.64770508 245.02124023 C-0.80929136 228.28792183 -0.90946097 210.82709205 -1.125 193.625 C-1.13916584 192.5425104 -1.13916584 192.5425104 -1.15361786 191.43815231 C-1.48131781 161.71144514 4.2891447 136.25768665 13.95605469 108.06396484 C16.70836178 100.00180795 19.05955768 91.83402139 21.36065674 83.63375854 C21.97684084 81.45681982 22.61273426 79.28668881 23.25537109 77.11743164 C23.62881232 75.83616774 24.0020374 74.55484081 24.375 73.2734375 C24.69210937 72.19497559 25.00921875 71.11651367 25.3359375 70.00537109 C26.89070662 62.96889762 25.3005653 58.61359019 22.34375 52.296875 C21.96319458 51.46021301 21.58263916 50.62355103 21.19055176 49.76153564 C19.97087771 47.08606749 18.73591772 44.41799752 17.5 41.75 C16.69946655 40.00308692 15.89997782 38.25569468 15.1015625 36.5078125 C13.51925478 33.04645366 11.9344807 29.58624352 10.34765625 26.12695312 C9.56481856 24.41809956 8.7822669 22.70911493 8 21 C7.60474121 20.13656982 7.20948242 19.27313965 6.80224609 18.38354492 C5.66389545 15.88872643 4.53382117 13.39033071 3.40625 10.890625 C3.0613855 10.13738953 2.716521 9.38415405 2.36120605 8.60809326 C0 3.34424743 0 3.34424743 0 0 Z " fill="#000000" transform="translate(711,112)"/>
<path d="M0 0 C11.27294494 8.51814168 18.20707247 18.92520635 20.8125 32.875 C22.3396756 47.58774576 19.88814617 59.96470319 10.8125 71.875 C10.07 72.90625 9.3275 73.9375 8.5625 75 C-0.25413777 84.21739403 -11.14673073 89.28136499 -23.81640625 90.11328125 C-37.50190764 90.37149826 -48.45134007 87.87258311 -59.1875 78.875 C-59.96996094 78.22789063 -60.75242187 77.58078125 -61.55859375 76.9140625 C-68.96014879 70.19899233 -75.57647565 59.95718567 -76.34863281 49.74365234 C-76.72102969 29.49998511 -76.72102969 29.49998511 -73.1875 21.875 C-72.85878906 21.13636719 -72.53007813 20.39773437 -72.19140625 19.63671875 C-66.40461025 8.04310324 -56.86098218 -0.62913069 -44.9375 -5.5 C-30.06737374 -10.03729493 -13.04336121 -8.410582 0 0 Z " fill="#000000" transform="translate(703.1875,7.125)"/>
<path d="M0 0 C6.6 0 13.2 0 20 0 C20.7245292 4.34717518 21.22671388 8.37645895 21.49989319 12.74623108 C21.56242811 13.72634026 21.56242811 13.72634026 21.62622637 14.72624964 C21.76427785 16.90204116 21.8978936 19.07808138 22.03149414 21.25415039 C22.12990665 22.8201455 22.22858188 24.38612411 22.32749939 25.9520874 C22.59485551 30.19815609 22.85823829 34.4444625 23.12068486 38.69083714 C23.34064553 42.2440126 23.56253601 45.79706648 23.78441805 49.35012239 C24.30841587 57.74162237 24.82918442 66.13331848 25.34790039 74.52514648 C25.88151599 83.15718096 26.42032106 91.78888018 26.96175677 100.42042738 C27.42755645 107.84895863 27.89020061 115.27768185 28.35034078 122.7065658 C28.62467642 127.13527484 28.90014261 131.56390567 29.17860603 135.99235725 C29.44079039 140.16426208 29.698994 144.33639551 29.95427895 148.50872803 C30.0480234 150.03045108 30.1431042 151.55209256 30.23970413 153.07363701 C31.85105451 178.49739731 31.85105451 178.49739731 29.07226562 183.40356445 C27.75258789 184.62112427 27.75258789 184.62112427 26.40625 185.86328125 C25.45878906 186.76884766 24.51132812 187.67441406 23.53515625 188.60742188 C22.52412367 189.5098839 21.51239605 190.41156781 20.5 191.3125 C19.48532917 192.26182849 18.4735779 193.21428759 17.46484375 194.16992188 C15.00343707 196.47895576 12.51720322 198.75217833 10 201 C8.35093986 199.58897065 6.70267498 198.17700285 5.05810547 196.76074219 C3.71957568 195.61560852 2.37261016 194.4802377 1.01611328 193.35644531 C-1.01125183 191.65639697 -2.97376312 189.89795185 -4.9375 188.125 C-5.96327148 187.29355469 -5.96327148 187.29355469 -7.00976562 186.4453125 C-10.30732548 183.38823403 -11.88583467 181.1691928 -12.33134365 176.60663509 C-12.29197736 174.67499429 -12.29197736 174.67499429 -12.2518158 172.70433044 C-12.23968581 172.00074825 -12.22755583 171.29716605 -12.21505827 170.57226318 C-12.05162804 163.06766348 -11.55694424 155.58258079 -11.00610352 148.09790039 C-10.89887387 146.58310269 -10.79213873 145.06826992 -10.68585205 143.55340576 C-10.3995819 139.49358406 -10.1063836 135.43429115 -9.81171155 131.37507176 C-9.50265688 127.10216739 -9.19984062 122.82882039 -8.89622498 118.55552673 C-8.38633975 111.39147944 -7.87224749 104.22774453 -7.35522461 97.06420898 C-6.69306038 87.88940414 -6.03783146 78.71411776 -5.3847971 69.5386591 C-4.82069429 61.61339072 -4.25351426 53.68834301 -3.68579364 45.76333308 C-3.50454226 43.23154025 -3.3236901 40.69971912 -3.14288521 38.16789436 C-2.85819926 34.18430061 -2.57158842 30.20084958 -2.28352356 26.21749878 C-2.17852121 24.76194482 -2.07410363 23.30634853 -1.97033501 21.8507061 C-1.82783196 19.85335989 -1.68289188 17.85618801 -1.53785706 15.85902405 C-1.41756307 14.18810495 -1.41756307 14.18810495 -1.29483891 12.48342991 C-0.94201008 8.31486719 -0.46198674 4.15788066 0 0 Z " fill="#000000" transform="translate(666,151)"/>
<path d="M0 0 C11.22 0 22.44 0 34 0 C31 11 31 11 28 19 C21.07 19 14.14 19 7 19 C3 10 3 10 0 0 Z " fill="#000000" transform="translate(659,129)"/>
</svg>
